<?xml version="1.0" encoding="utf-8"?>
<!-- Generator: Adobe Illustrator 21.1.0, SVG Export Plug-In . SVG Version: 6.00 Build 0)  -->
<svg version="1.1" id="Layer_1" xmlns="http://www.w3.org/2000/svg" xmlns:xlink="http://www.w3.org/1999/xlink" x="0px" y="0px"
	 viewBox="0 0 100 125" style="enable-background:new 0 0 100 125;" xml:space="preserve">
<path d="M74.5,70.8l-5.2-9c-0.3-0.5-0.1-1.2,0.4-1.4l5.2-3c0.4-0.2,0.8-0.2,1.1,0l0,0c0.9,0.6,1.9,1.1,3,1.4c1,0.3,2.1,0.5,3.3,0.5
	c3.1,0,6-1.3,8.1-3.3c2.1-2.1,3.3-4.9,3.3-8.1c0-3.1-1.3-6-3.3-8.1c-2.1-2.1-4.9-3.3-8.1-3.3c-3.1,0-6,1.3-8.1,3.3v0
	c-2.1,2.1-3.3,4.9-3.3,8.1c0,0.2,0,0.4,0,0.5c0,0.1,0,0.3,0,0.5c0,0.5-0.2,0.9-0.6,1.1l-5,2.9c-0.5,0.3-1.2,0.1-1.4-0.4l0,0
	l-13-22.5H21.8c-0.4,0-0.8,0.2-1.1,0.5c-0.3,0.3-0.5,0.7-0.5,1.1v3.7c0,0.4,0.2,0.8,0.5,1.1c0.3,0.3,0.7,0.5,1.1,0.5h21.6
	c0.4,0,0.8,0.2,1,0.6l6.2,10.8c0.3,0.5,0.1,1.2-0.4,1.5l-15.9,9.2l-0.1,0l-2.5,1.4h25.7c0.6,0,1.1,0.5,1.1,1.1
	c0,0.6-0.5,1.1-1.1,1.1H2.1c-0.6,0-1.1-0.5-1.1-1.1c0-0.6,0.5-1.1,1.1-1.1h25.4l5.7-3.3l0.1,0l15-8.6l-5.4-9.4H21.8
	c-1,0-2-0.4-2.6-1.1l0,0c-0.7-0.7-1.1-1.6-1.1-2.6v-3.7c0-1,0.4-2,1.1-2.6l0,0c0.7-0.7,1.6-1.1,2.6-1.1h29.7v0
	c0.4,0,0.7,0.2,0.9,0.5l12.8,22.1l3.6-2.1c0-0.2,0-0.4,0-0.5c0-3.7,1.5-7.1,4-9.6l0,0h0l0,0c2.4-2.5,5.8-4,9.6-4
	c3.7,0,7.1,1.5,9.6,4c2.4,2.4,4,5.8,4,9.6c0,3.7-1.5,7.1-4,9.6c-2.5,2.4-5.8,4-9.6,4c-1.3,0-2.7-0.2-3.9-0.6c-1.1-0.3-2.1-0.8-3-1.3
	l-3.7,2.1l5.3,9.1h21.7c0.6,0,1.1,0.5,1.1,1.1s-0.5,1.1-1.1,1.1H43.3c-0.6,0-1.1-0.5-1.1-1.1s0.5-1.1,1.1-1.1L74.5,70.8L74.5,70.8z
	 M72.1,81.2c0.6,0,1.1,0.5,1.1,1.1c0,0.6-0.5,1.1-1.1,1.1H16.8c-0.6,0-1.1-0.5-1.1-1.1c0-0.6,0.5-1.1,1.1-1.1H72.1z"/>
</svg>
