<?xml version="1.0" encoding="utf-8"?>
<!-- Generator: Adobe Illustrator 21.0.0, SVG Export Plug-In . SVG Version: 6.00 Build 0)  -->
<svg version="1.1" id="Layer_1" xmlns="http://www.w3.org/2000/svg" xmlns:xlink="http://www.w3.org/1999/xlink" x="0px" y="0px"
	 viewBox="0 0 64 80" style="enable-background:new 0 0 64 80;" xml:space="preserve">
<g>
	<path d="M20,42H8V21c0-2.8-2.2-5-5-5c-0.6,0-1,0.4-1,1v46c0,0.6,0.4,1,1,1c2.8,0,5-2.2,5-5v-1h8v1c0,2.8,2.2,5,5,5c0.6,0,1-0.4,1-1
		V48h2c0.6,0,1-0.4,1-1C25,44.2,22.8,42,20,42z M4,18.2c1.2,0.4,2,1.6,2,2.8v21H4V18.2z M6,59c0,1.3-0.8,2.4-2,2.8V48h2V59z M8,56
		v-8h8v8H8z M20,61.8c-1.2-0.4-2-1.6-2-2.8V48h2V61.8z M21,46H4v-2h16c1.3,0,2.4,0.8,2.8,2H21z"/>
	<path d="M61,16c-2.8,0-5,2.2-5,5v21H44c-2.8,0-5,2.2-5,5c0,0.6,0.4,1,1,1h2v15c0,0.6,0.4,1,1,1c2.8,0,5-2.2,5-5v-1h8v1
		c0,2.8,2.2,5,5,5c0.6,0,1-0.4,1-1V17C62,16.4,61.6,16,61,16z M58,21c0-1.3,0.8-2.4,2-2.8V42h-2V21z M44,44h16v2H41.2
		C41.6,44.8,42.7,44,44,44z M46,59c0,1.3-0.8,2.4-2,2.8V48h2V59z M48,56v-8h8v8H48z M60,61.8c-1.2-0.4-2-1.6-2-2.8V48h2V61.8z"/>
	<path d="M34,58h-1V38h16c1.7,0,3-1.3,3-3s-1.3-3-3-3h-5v-4c0-0.1,0-0.1,0-0.2c1.2-0.4,2-1.5,2-2.8v-4c0-0.6-0.4-1-1-1h-4
		c-0.6,0-1,0.4-1,1v4c0,1.3,0.8,2.4,2,2.8c0,0.1,0,0.1,0,0.2v4h-5v-9.6c0-1.5-0.8-2.9-2-3.7V11c0-0.6-0.4-1-1-1h-4c-0.6,0-1,0.4-1,1
		v7.7c-1.2,0.8-2,2.2-2,3.7V32h-5v-4c0-0.1,0-0.1,0-0.2c1.2-0.4,2-1.5,2-2.8v-4c0-0.6-0.4-1-1-1h-4c-0.6,0-1,0.4-1,1v4
		c0,1.3,0.8,2.4,2,2.8c0,0.1,0,0.1,0,0.2v4h-5c-1.7,0-3,1.3-3,3s1.3,3,3,3h16v20h-1c-2.8,0-5,2.2-5,5c0,0.6,0.4,1,1,1h12
		c0.6,0,1-0.4,1-1C39,60.2,36.8,58,34,58z M42,22h2v3c0,0.6-0.4,1-1,1s-1-0.4-1-1V22z M20,22h2v3c0,0.6-0.4,1-1,1s-1-0.4-1-1V22z
		 M35,28h-2v-2h2V28z M31,12h2v2h-2V12z M29,22.4c0-0.9,0.6-1.8,1.4-2.1c0.4-0.2,0.6-0.5,0.6-0.9V16h2v3.3c0,0.4,0.2,0.8,0.6,0.9
		c0.9,0.4,1.4,1.2,1.4,2.2V24h-3c-0.6,0-1,0.4-1,1v4c0,0.6,0.4,1,1,1h3v2h-6V22.4z M14,35c0-0.6,0.4-1,1-1h34c0.6,0,1,0.4,1,1
		s-0.4,1-1,1H15C14.4,36,14,35.6,14,35z M27.2,62c0.4-1.2,1.6-2,2.8-2h4c1.3,0,2.4,0.8,2.8,2H27.2z"/>
</g>
</svg>
